<svg enable-background="new 0 0 1600 1200" viewBox="0 0 1600 1200" xmlns="http://www.w3.org/2000/svg"><path d="m932.9 129.8c-24.5 14.5-31.5 39.5-34.4 49.8-.7 2.5-8.9 33.2 5.3 65.2 4.2 9.5 8.7 19.3 18.9 24 5.9 2.8 11.2 2.6 32 .8 9.7-.8 20.2-1.8 31.4-3 7.9-10.1 21.5-30.3 25.5-58.7.7-5.3 8.9-68.5-25.5-85.3-22.5-11.1-49.6 5-53.2 7.2z" fill="#ec615b"/><ellipse cx="480.5" cy="253.9" fill="#ec615b" rx="22.6" ry="25"/><ellipse cx="993" cy="663.3" fill="#ec615b" rx="16.8" ry="16.2"/><ellipse cx="480.7" cy="569.2" fill="#ec615b" rx="12.5" ry="12.5"/><ellipse cx="457.4" cy="249.7" fill="#5222d0" rx="19.9" ry="20.9"/><ellipse cx="988.4" cy="641.1" fill="#5222d0" rx="12.3" ry="12.8"/><ellipse cx="1152.8" cy="286.5" fill="#5222d0" rx="13.5" ry="14.4"/><path d="m859.6 389.9c-2.2-3.5-5.8-.2-7.3 2.2-3.1 5-5.1 11.2-2.8 16.9 1.7 4.3 5.9 7.9 10.8 7.2 4.5-.6 7.9-4.3 7.8-8.8 0-1.2-1.7-2.1-2.6-1.1-5.3 6.7-11.8 16.2-6.5 24.8 3.7 5.9 12.8 6.7 16.4.3-.9-.1-1.8-.2-2.7-.4.5 2.8 1 5.6 1.4 8.4.3 1.9 3.2 1.1 2.9-.8-.5-2.8-1-5.6-1.4-8.4-.2-1.3-2.2-1.4-2.7-.4-1.6 2.8-5.2 3.8-8.1 2.4-3.2-1.6-4.6-5.2-4.6-8.7 0-5.8 4.1-10.9 7.5-15.2-.9-.4-1.7-.7-2.6-1.1.1 3.8-3.6 6.6-7.3 5.8-2.8-.6-4.6-3-5.6-5.6-1-2.7-.9-5.4-.1-8.1.1-.2 4.2-9.1 4.8-8.1 1.1 1.8 3.7.3 2.7-1.3z" fill="#ec615b"/><path d="m451.3 398.9c2.2-6 9.5-3.4 11.8.8.8 1.4 1.2 3 1.4 4.6.4 3 .1 4.2-2.5 6-2.8 2.8-3.5 1.7-2-3.3.7-.3 1.5-.6 2.2-.9 1.9-.5 4.1-.4 6 .2 4.8 1.6 7.2 6.7 6.5 11.4-.2 1.2 1 2.4 2.2 1.7 6.5-3.7 15.1.4 16.6 7.7.4 1.9 3.3 1.1 2.9-.8-1.9-9.2-12.8-14-21-9.4.7.6 1.5 1.1 2.2 1.7 1.3-8.8-5.4-17-14.7-15.6-3.2.5-8 2.5-8.4 6.3-.3 3.1 2.6 5.4 5.5 5.7 8.6.8 8.4-11.7 5.6-16.7-3.8-6.8-14.3-8.5-17.3-.1-.6 1.7 2.3 2.5 3 .7z" fill="#ec615b"/><path d="m977.8 775.3c7.7 5.1 14.2 11.6 19.4 19.2 1.1 1.6 3.7.1 2.6-1.5-5.5-8-12.3-14.8-20.4-20.2-1.7-1.2-3.2 1.4-1.6 2.5z" fill="#5222d0"/><path d="m997.3 780.8c1.6 1.9 3.1 3.9 4.7 5.8 1.2 1.5 3.3-.6 2.1-2.1-1.6-1.9-3.1-3.9-4.7-5.8-1.2-1.5-3.3.7-2.1 2.1z" fill="#5222d0"/><path d="m988.1 752.8c6.9 6.4 12.6 13.7 17 22 .9 1.7 3.5.2 2.6-1.5-4.5-8.5-10.4-16.1-17.5-22.6-1.4-1.4-3.5.8-2.1 2.1z" fill="#5222d0"/><g fill="#e8e8e8"><path d="m296.7 865.4c2.2 21.7 6 43.1 11.3 64.3.5 1.9 3.4 1.1 2.9-.8-5.2-20.9-9-42.1-11.2-63.5-.2-1.9-3.2-1.9-3 0z"/><path d="m308.6 930.7c19.7 5.1 40.2 5.1 59.9 0 1.9-.5 1.1-3.4-.8-2.9-19.2 5-39.1 5-58.3 0-1.8-.5-2.6 2.4-.8 2.9z"/><path d="m370.8 927.7c1.3-21.3 3-42.6 5-63.9.2-1.9-2.8-1.9-3 0-2 21.3-3.7 42.6-5 63.9-.1 1.9 2.9 1.9 3 0z"/><path d="m298.4 867c24.9 5.1 50.5 4.9 75.4-.7 1.9-.4 1.1-3.3-.8-2.9-24.3 5.4-49.4 5.7-73.8.7-1.9-.4-2.7 2.5-.8 2.9z"/><path d="m298.1 874.2c.8 4.1 6 3.9 9.2 4.2 8.1.7 16.3.9 24.4.7 7.8-.2 15.6-.8 23.4-1.7 6.2-.8 12.2-1.6 17.7-4.7 1.7-.9.2-3.5-1.5-2.6-9.9 5.5-23.6 5.3-34.7 5.8-5.5.2-11.1.3-16.6.2-2.9-.1-18.4.6-19-2.7-.4-1.9-3.2-1.1-2.9.8z"/><path d="m303.8 908.9c4.8 8.5 10.9 16 18.2 22.5 1.4 1.3 3.6-.8 2.1-2.1-7.2-6.3-13.1-13.6-17.7-21.9-.9-1.7-3.5-.2-2.6 1.5z"/><path d="m299.9 885.8c10.2 17.2 22.6 33 36.8 47.2 1.4 1.4 3.5-.8 2.1-2.1-14-14-26.2-29.6-36.3-46.6-1-1.6-3.6-.1-2.6 1.5z"/><path d="m316.6 878.6c10.6 18.9 22.9 36.8 36.8 53.5 1.2 1.5 3.3-.6 2.1-2.1-13.7-16.5-25.9-34.2-36.3-52.9-.9-1.7-3.5-.2-2.6 1.5z"/><path d="m335.7 879.3c10.3 15.4 20.7 30.7 31.2 46 1.1 1.6 3.7.1 2.6-1.5-10.5-15.3-20.9-30.6-31.2-46-1.1-1.6-3.7-.1-2.6 1.5z"/><path d="m351.7 878.4c5.2 8.4 10.8 16.6 16.6 24.6 1.1 1.5 3.7 0 2.6-1.5-5.8-8-11.4-16.2-16.6-24.6-1-1.6-3.6-.1-2.6 1.5z"/><path d="m265.2 777.4c1.2 6.9 2.4 13.9 3.7 20.8.4 1.9.7 3.9 2.3 5.1 1.1.9 4.7.8 5.4 1.8.1-.6.2-1.2.2-1.8-1.5 1.5-3 3-4.6 4.4-.4.4-.5 1-.4 1.5.9 2.7 1.5 6.7 3.3 9 .9 1.2 2.5 1 3.2 1.7.6.6.4.2.1 2-.2 1.5-.2 3.1 0 4.7.3 2.4 1 4.7 1.9 6.9 5.2 12.6 15.3 22.8 25 32.2 1.4 1.3 3.5-.8 2.1-2.1-6.2-6-12.4-12.2-17.5-19.2-5-6.9-10.9-16.2-7.8-25 .2-.5 0-1.2-.4-1.5-1.9-1.5-3.8-.9-5.1-3.3-2.5-4.5-1.1-6 2.1-9.1.5-.4.6-1.3.2-1.8-.8-1.2-1.4-1.6-2.7-2-.8-.3-2 0-2.8-.4-1.7-.9-1.7-3.1-2-4.7-1.2-6.6-2.4-13.3-3.5-19.9-.2-2-3.1-1.2-2.7.7z"/><path d="m267.4 777c39 13 65.7 49.4 66.5 90.6 0 1.9 3 1.9 3 0-.8-42.5-28.4-80-68.7-93.5-1.8-.6-2.6 2.3-.8 2.9z"/><path d="m327.3 826.6c9.7-26.9 24-52.9 46.9-70.6 1.5-1.2 0-3.8-1.5-2.6-23.6 18.3-38.3 44.7-48.3 72.4-.6 1.8 2.3 2.6 2.9.8z"/><path d="m371.6 755.4c.7 9.2 1.5 18.4 2.2 27.7.2 1.9 3.2 1.9 3 0-.7-9.2-1.5-18.4-2.2-27.7-.1-1.9-3.1-1.9-3 0z"/><path d="m375.1 782.1c-1.3.3-2.6.6-3.8 1-1.9.5-1.1 3.4.8 2.9 1.3-.3 2.6-.6 3.8-1 1.9-.5 1.1-3.3-.8-2.9z"/><path d="m369.8 785.8c.4 1.9 2 3.1 3.8 3.3.8.1 1.5-.7 1.5-1.5 0-.9-.7-1.4-1.5-1.5.3 0 0 0-.1 0s-.3-.1-.1 0c-.1-.1-.2-.1-.3-.2-.2-.1.2.2-.1-.1-.1-.1-.1-.1-.2-.2.2.2 0 0 0-.1-.1-.1-.1-.3-.1-.1 0-.1-.1-.3-.1-.4-.2-.8-1.1-1.3-1.8-1-.8.2-1.2 1-1 1.8z"/><path d="m372.1 788c.1 5.7-.1 11.3-.7 16.9-.2 1.8.1 6-1.1 7.4-.1.1-1.9.4-2.3.7-1.5 1.2.6 3.3 2.1 2.1.5-.4 1.7 0 2.5-.9 1.2-1.2 1-4 1.2-5.4.9-6.9 1.3-13.9 1.2-20.9.1-1.8-2.9-1.8-2.9.1z"/><path d="m366.8 815.6c3.2 3.8 2.3 10.1 2 14.7-.4 5.3-1.3 10.2-3.9 14.8-3.7 6.8-8.9 12.5-11.6 19.9-.7 1.8 2.2 2.6 2.9.8 3.6-9.7 11.9-16.9 14.4-27.1 1.8-7.3 3.5-19-1.7-25.2-1.2-1.4-3.3.7-2.1 2.1z"/><path d="m343.2 866.4c2.8-28.4 10.3-56.1 22.3-81.9.8-1.7-1.8-3.3-2.6-1.5-12.2 26.4-19.9 54.5-22.7 83.5-.2 1.9 2.8 1.8 3-.1z"/><path d="m284.2 793.7c17.5 22 30.3 47.3 37.8 74.3.5 1.9 3.4 1.1 2.9-.8-7.7-27.6-20.8-53.2-38.6-75.6-1.2-1.5-3.3.6-2.1 2.1z"/><path d="m286.1 830.6c8.4-.5 16.2 1.5 23.3 5.9 1.6 1 3.2-1.6 1.5-2.6-7.5-4.6-16-6.8-24.8-6.3-2 .1-2 3.1 0 3z"/><path d="m304.4 817.2c-.6-5.5.1-10.8 2.2-16 .7-1.8-2.2-2.6-2.9-.8-2.2 5.4-2.9 11-2.3 16.8.2 1.9 3.2 1.9 3 0z"/><path d="m336.8 800.6c3.3 8.1 8.1 16.7 9.3 25.3.3 1.9 3.2 1.1 2.9-.8-1.3-8.7-6.1-17.3-9.3-25.3-.7-1.8-3.6-1-2.9.8z"/><path d="m355.2 810.1c2.9-3.3 5.7-7.2 9.4-9.7 3.1-2.1 6.5-3.5 8.9-6.4 1.2-1.5-.9-3.6-2.1-2.1-2.6 3.1-6.4 4.4-9.5 6.8-3.4 2.6-6 6.1-8.8 9.3-1.3 1.5.8 3.6 2.1 2.1z"/><path d="m356.2 865.4c4.8-1.3 9.7-1.8 14.7-1.5 1.9.1 1.9-2.9 0-3-5.3-.3-10.4.2-15.5 1.6-1.8.5-1.1 3.4.8 2.9z"/><path d="m355.8 866.6c5.6.5 11-.2 16.4-1.9 1.8-.6 1-3.5-.8-2.9-5.1 1.6-10.3 2.2-15.6 1.8-1.9-.1-1.9 2.9 0 3z"/><path d="m299.7 866.1h3.8c1.9 0 1.9-3 0-3-1.3 0-2.5 0-3.8 0-1.9 0-1.9 3 0 3z"/><path d="m373 890.3h95.2c1.9 0 1.9-3 0-3-31.7 0-63.5 0-95.2 0-1.9 0-1.9 3 0 3z"/><path d="m909.6 870.5h56.6c1.9 0 1.9-3 0-3-18.9 0-37.7 0-56.6 0-1.9 0-1.9 3 0 3z"/><path d="m1081.2 872.3h244.5 69.6c1.9 0 1.9-3 0-3-81.5 0-163 0-244.5 0-23.2 0-46.4 0-69.6 0-1.9 0-1.9 3 0 3z"/><path d="m960.5 544c-7.6 15.7-15.8 31.1-24.5 46.2-.4.8-.1 2.1.9 2.2 42.9 6.5 81.3 27.8 118.3 49.3 1.7 1 3.2-1.6 1.5-2.6-37.3-21.6-75.9-43-119.1-49.6.3.7.6 1.5.9 2.2 8.8-15.1 16.9-30.5 24.5-46.2.9-1.7-1.6-3.3-2.5-1.5z"/><path d="m967.1 598.5c3-8.6 6-17.3 9-25.9 1.3-3.6 2.2-7.6 3.9-11.1.4-2.1 1.7-3.7 3.7-4.9 1.2.3 2.4.6 3.6.9 1.8.5 3.6.9 5.3 1.4 4.1 1 10.7 1 10 6.5-.5 3.9-2.8 8.1-4.1 11.9-3 8.5-5.9 17-8.9 25.5-.6 1.8 2.3 2.6 2.9.8 3.9-11.2 7.8-22.5 11.7-33.7.9-2.6 3.4-7 1.4-9.8-2.2-3-8.8-3.2-12.2-4.1-3.3-.8-9.1-3.8-12.5-2.2-2.9 1.3-3.5 6.3-4.4 8.8-4.1 11.7-8.2 23.5-12.3 35.2-.6 1.7 2.3 2.5 2.9.7z"/><path d="m1005.7 609.2c6.4-13.5 12.9-27.1 19.3-40.6 3.2-6.8 6.4-13.5 9.7-20.3 1.5-3.1 2.7-6.8 4.6-9.7 1.6-2.5 2-3.1 4.8-2 1.5.6 3.3 2.1 4.6 3 1.7 1.2 4.4 2.5 5.6 4.1 1.5 1.9.9 3.9 0 6.3-1.2 3.2-3 6.3-4.5 9.4-3.3 6.8-6.6 13.6-10.1 20.4-6.6 12.9-13.5 25.7-20.6 38.4-1 1.7 1.6 3.2 2.6 1.5 8.7-15.4 17-31 24.8-46.8 3.9-7.8 8.2-15.8 11.5-23.9 2.3-5.9-2.7-8.3-7.1-11.4-3.5-2.4-9-7.9-12.8-3.4-2.4 2.8-3.7 7.5-5.3 10.9-2 4.1-3.9 8.2-5.9 12.4-8 16.8-16 33.6-23.9 50.4-.7 1.5 1.9 3.1 2.7 1.3z"/><path d="m1038.9 630c8.6-13.5 18.3-26.3 29-38.1-.6.1-1.2.2-1.8.2 3.8 2.6 7.5 5.1 11.3 7.7-.2-.7-.4-1.4-.5-2.1-8.5 13.3-17 26.5-25.5 39.8-1 1.6 1.5 3.1 2.6 1.5 8.5-13.3 17-26.5 25.5-39.8.5-.7.1-1.6-.5-2.1-3.8-2.6-7.5-5.1-11.3-7.7-.5-.4-1.4-.2-1.8.2-10.9 12.1-20.8 25-29.5 38.7-1.1 1.9 1.5 3.4 2.5 1.7z"/><path d="m1158.2 534.9c-10-3.8-16.3-13.8-14.5-24.5 1.8-10.9 12.5-20.6 23.5-14.1 7.6 4.5 11.5 14.7 8.6 23-3 8.9-12.8 14.2-21.9 12.8-1.9-.3-2.7 2.6-.8 2.9 10.7 1.6 22-4.3 25.6-14.9s-2.2-23.4-12.6-27.7c-12.2-5-23.3 5.5-25.4 17.2-2.2 12.4 5.1 23.8 16.6 28.2 1.9.7 2.7-2.2.9-2.9z"/><path d="m1178.7 533c-19.9-.6-12.4-32.5 5.2-31.3 17.6 1.3 10.4 37.2-8.9 30.6-1.8-.6-2.6 2.3-.8 2.9 22.3 7.6 32.3-33 11-36.4-10.4-1.7-19.8 8.1-21.4 17.8-1.6 9.6 4.9 19 14.9 19.3 1.9.2 1.9-2.8 0-2.9z"/><path d="m1163.8 442.5c-1.7-1.8-2.5-4.7-1.2-6.9 1.3-2.1 4.5-3.1 6.5-1.5 1.8 1.4 2.2 4.4.5 5.9-2 1.8-5.2.9-7.1-.6-1.5-1.2-3.6.9-2.1 2.1 3.1 2.4 7.9 3.6 11.2.7 3-2.7 2.7-7.7-.3-10.3-3.1-2.7-8-1.9-10.6 1.1-2.9 3.4-2.1 8.5.9 11.6 1.4 1.4 3.5-.7 2.2-2.1z"/><path d="m873.6 517.8c-2.8-17 7.1-37.5 26.3-37.3 9.8.1 19.3 4.1 29.2 2.7 7-1 13-5 17.2-10.5s6.6-12.4 7-19.3c.5-10.2-3.4-20.6-.6-30.7 1.4-5.1 4.4-9.8 9.5-11.7 4.9-1.7 10.2-.7 15.3-.9 7.4-.3 13.2-3.5 16.9-10 5.2-9.1 4-20 7.6-29.6 4.3-11.6 16.4-21.5 29.2-15.8 1.7.8 3.3-1.8 1.5-2.6-17.4-7.8-31.9 7.9-35.3 23.7-2.2 10.3-1.8 26.3-14.1 30.4-8.6 2.9-18.3-1.6-26.2 4.3-6.5 4.8-8.4 13.6-8.3 21.3.3 11.3 3.8 22.3-1.2 33.1-4.6 10.2-13.7 16.3-25 15.6-10-.6-19.9-4.7-30-2.1-17.1 4.3-24.4 24.5-21.7 40.3.2 1.7 3.1.9 2.7-.9z"/><path d="m1000 446.5c-3.7-8.4 1.4-16.4 9.5-19.1 5.9-2 12.4-2.1 17.5-6.1 4-3.1 5.3-7 4.8-12-.5-4.7-.5-8.4 3.2-11.6 3.1-2.7 7.2-3.7 11.2-3.9 11-.4 26.1 5.2 34.1-5.5 3.7-5 2.6-11.2 4.3-16.8 2.3-7.8 9.8-12.6 17.8-12.2 1.9.1 1.9-2.9 0-3-6.1-.3-12 2-16.2 6.4-5.2 5.5-4.5 11.7-6.1 18.6-4.3 18.9-30.6 5.6-43 11.5-4.6 2.2-8.3 6.1-8.7 11.3-.5 6.1 2.3 11.1-3.9 15.3-3.3 2.2-7.1 2.9-10.9 3.8-6.3 1.5-12.5 3.4-15.7 9.5-2.6 4.8-2.6 10.3-.4 15.2.7 1.9 3.2.3 2.5-1.4z"/><path d="m1178.2 313.3c-.4-.9-.8-1.9-1.1-2.9 1.3-1.5 2.5-3 3.8-4.5.4-.1 2.2 1.1 2.8 1.1 1.5.2 2.8-.2 4-1.1 3.7-2.9 2.4-7.5 3.5-11.4 1.8-6.7 9.7-2.1 13.3-7.1 3.6-4.9 2.3-15.3 11.9-12.5 1.9.5 2.7-2.4.8-2.9-5.5-1.6-10.5 1-12.5 6.3-.6 1.5-.8 3.2-1.4 4.7-1.3 3.5-2.7 4-6.5 4.2-2.8.2-5 0-6.9 2.4-1.6 2.1-1.6 4.8-1.9 7.3-.3 3.7 0 6.8-5.5 6.4-1.1-.1-2-1.1-3.2-1.1-6.6-.1-5.5 8-3.9 11.9.6 1.8 3.6 1 2.8-.8z"/><path d="m1197 321.6c-1.6-2.1-4.3-8.2.4-9.8 1.7-.6 3.9.1 5.7.1 1.6 0 3 0 4.3-1.1 4-3.2 1.1-8.9 3.2-12.9 3.4-6.5 10.2-1.4 15-4.8 3.4-2.4 4.3-7 4.9-10.8.3-1.9-2.6-2.7-2.9-.8-.7 4.5-1.5 9.5-7.1 10-2.9.3-5.1-.7-7.8.6-4.4 2.1-5.8 6-5.9 10.5-.1 3.8.8 5.7-5.6 6-.8 0-1.6-.2-2.4-.2-2.3.2-4.3 1.4-5.6 3.3-2.8 4-1.2 8.6 1.6 12.1 1.3 1.5 3.4-.7 2.2-2.2z"/><path d="m346.8 375.8c8.3-10 20.1-18.2 33.7-16.8 14.8 1.5 22.1 13.3 23.5 27.1 2.4 22.9-3.2 50.3 12.3 69.8 6.1 7.7 15.2 11.8 25 9.4 11.8-2.8 21-12.1 31.5-17.6 12.4-6.5 29.5-10 40.7.9 8.2 8 10 20.2 12.7 30.8 2.5 9.6 6.8 20.2 15.4 25.9 5.2 3.4 10.9 3.7 16.9 3.3 6.7-.5 20.4-.9 19 9.6-.2 1.9 2.8 1.9 3 0 .5-4.1-1.4-7.4-4.7-9.8-5.2-3.8-11.2-3.2-17.3-2.8-6.9.5-12.8-.1-18.1-5-4.8-4.4-7.7-10.6-9.8-16.7-3.5-10.5-4.5-22-10.5-31.6-5.9-9.5-16.1-14.1-27.1-13.7-13.9.5-25.6 8.5-36.7 15.9-5.3 3.5-11 7.2-17.5 8.3-7.8 1.3-14.7-2.1-19.7-7.9-9.4-11-10.9-26.7-11.4-40.5-.5-12.9 1.2-26.9-3.1-39.4-3.9-11.4-13.8-18.5-25.7-19.1-13.8-.7-25.9 7.6-34.4 17.8-1.1 1.5 1 3.6 2.3 2.1z"/><path d="m296.3 530.1c15.6 26 29.5 52.9 41.8 80.6.8 1.8 3.4.2 2.6-1.5-12.3-27.7-26.3-54.6-41.8-80.6-1-1.7-3.6-.2-2.6 1.5z"/><path d="m298.2 528.9c24.3-15.1 49.3-29.2 75-42 1.7-.9.2-3.5-1.5-2.6-25.6 12.8-50.6 26.9-75 42-1.7 1.1-.2 3.7 1.5 2.6z"/><path d="m371.4 485.6c12.7 26.7 26.1 53 40.3 78.9.9 1.7 3.5.2 2.6-1.5-14.2-25.9-27.7-52.2-40.3-78.9-.9-1.8-3.4-.3-2.6 1.5z"/><path d="m341.5 611.3c23.9-14.4 47.5-29.2 70.9-44.4 1.6-1 .1-3.6-1.5-2.6-23.4 15.2-47 30-70.9 44.4-1.6 1-.1 3.6 1.5 2.6z"/><path d="m339.6 520.1c-.6 19.2.5 38.3 3.3 57.3.3 1.9 3.2 1.1 2.9-.8-2.8-18.7-3.8-37.6-3.2-56.5.1-1.9-2.9-1.9-3 0z"/><path d="m339.7 519.1c13.9 10.9 27.8 21.6 41.9 32.2 1.5 1.2 3-1.4 1.5-2.6-13.9-10.4-27.7-21-41.3-31.7-1.5-1.2-3.6.9-2.1 2.1z"/><path d="m346 578c11.5-10.3 26.5-15.8 37.4-26.9 1.4-1.4-.8-3.5-2.1-2.1-10.9 11-25.8 16.6-37.4 26.9-1.5 1.2.7 3.3 2.1 2.1z"/><path d="m300.3 545.8c3.2-1.6 6.4-3.1 9.6-4.7 1.7-.8.2-3.4-1.5-2.6-3.2 1.6-6.4 3.1-9.6 4.7-1.7.9-.2 3.4 1.5 2.6z"/><path d="m310.6 562.8c2.7-1.8 5.6-3.3 8.6-4.6 1.8-.7 1-3.6-.8-2.9-3.3 1.4-6.4 3-9.4 4.9-1.5 1.1 0 3.7 1.6 2.6z"/><path d="m321.9 582.4c2.8-1.4 5.6-2.8 8.4-4.1 1.7-.9.2-3.4-1.5-2.6-2.8 1.4-5.6 2.8-8.4 4.1-1.7.8-.2 3.4 1.5 2.6z"/><path d="m327.7 602c3.1-2.7 6.3-5 9.9-7 1.7-1 .2-3.5-1.5-2.6-3.7 2.1-7.2 4.6-10.5 7.5-1.5 1.3.6 3.4 2.1 2.1z"/><path d="m377.1 505.3c2.3-1.6 4.7-2.7 7.4-3.4 1.9-.5 1.1-3.3-.8-2.9-2.9.7-5.7 1.9-8.2 3.7-1.5 1.1 0 3.7 1.6 2.6z"/><path d="m386 522.4c3.2-2 6.4-4 9.5-6.1 1.6-1 .1-3.6-1.5-2.6-3.2 2-6.4 4-9.5 6.1-1.7 1.1-.2 3.7 1.5 2.6z"/><path d="m396.2 542.9c3.4-1.5 6.9-3 10.3-4.5 1.8-.8.2-3.4-1.5-2.6-3.4 1.5-6.9 3-10.3 4.5-1.8.8-.2 3.4 1.5 2.6z"/><path d="m403.5 556.3c2.7-2.6 5.7-4.8 9-6.7 1.7-.9.2-3.5-1.5-2.6-3.5 2-6.7 4.3-9.6 7.1-1.4 1.4.7 3.5 2.1 2.2z"/><path d="m350 598.1c2.5 3.7 4.6 7.6 6.2 11.7.7 1.8 3.6 1 2.9-.8-1.7-4.4-3.8-8.6-6.5-12.5-1.1-1.5-3.7 0-2.6 1.6z"/><path d="m365.3 589.8c1.9 3.4 3.7 6.7 5.6 10.1.9 1.7 3.5.2 2.6-1.5-1.9-3.4-3.7-6.7-5.6-10.1-.9-1.7-3.5-.2-2.6 1.5z"/><path d="m383 577.1c2 3.6 4 7.2 6 10.8.9 1.7 3.5.2 2.6-1.5-2-3.6-4-7.2-6-10.8-.9-1.7-3.5-.2-2.6 1.5z"/><path d="m398.9 567.6c1.6 3.8 3.2 7.6 4.9 11.3.8 1.8 3.3.2 2.6-1.5-1.6-3.8-3.2-7.6-4.9-11.3-.8-1.7-3.4-.2-2.6 1.5z"/><path d="m308.2 513.5c1.9 3.1 3.7 6.2 5.6 9.2 1 1.7 3.6.1 2.6-1.5-1.9-3.1-3.7-6.2-5.6-9.2-1-1.6-3.6-.1-2.6 1.5z"/><path d="m325.4 503.5 5.4 12c.8 1.8 3.4.2 2.6-1.5-1.8-4-3.6-8-5.4-12-.9-1.8-3.4-.3-2.6 1.5z"/><path d="m340.9 493.9c2.7 3.6 4.8 7.5 6.2 11.7.6 1.8 3.5 1 2.9-.8-1.5-4.5-3.6-8.7-6.5-12.4-1.1-1.5-3.7-.1-2.6 1.5z"/><path d="m357.6 486.2c2.1 3.2 4.1 6.3 6.2 9.5 1 1.6 3.6.1 2.6-1.5-2.1-3.2-4.1-6.3-6.2-9.5-1.1-1.6-3.7-.1-2.6 1.5z"/><path d="m513.1 287.9c-9.7-3-10.2-13.3-5.6-21 4.5-7.5 13.2-9.5 20-3.3 5.6 5.2 6.1 14.1.9 19.8-5.2 5.8-13.7 5.7-19.7 1.3-1.5-1.2-3 1.4-1.5 2.6 7.6 5.6 18.7 4.7 24.4-3.2 5.9-8 3.8-19.2-4.5-24.6-20-12.9-37.2 24.3-14.8 31.3 1.9.6 2.7-2.3.8-2.9z"/><path d="m529.2 290.5c-7.5 2.3-9.3-6.7-6-11.5 2.7-3.9 8-6.2 12.8-4.9 4.6 1.2 7.9 5.9 6.7 10.6-1.5 5.9-7.7 8-13.2 7.1-1.9-.3-2.7 2.6-.8 2.9 7.4 1.3 15.4-1.9 17-9.9 1.4-6.9-4-13.2-10.7-14-7.4-.9-15.5 4.5-16.5 12.1-.9 6.6 5.1 12.5 11.7 10.4 1.7-.5.9-3.4-1-2.8z"/><path d="m465.4 355.6c-2.4 4.9 1 9.8 6 11.1 3.8 1 7.8.1 11.7.3 4.2.2 8.4 1.2 12.2 2.9 8.4 3.8 13.8 10.7 14.1 20 .3 7.8-2 15.9 1.4 23.3 7.2 15.6 27 3.7 37.2 13.8 8.5 8.5 5 24 16.4 30.5 1.7 1 3.2-1.6 1.5-2.6-10.2-5.8-7.8-20.9-15-29.3-3.8-4.4-9.3-5.6-14.9-6-6.8-.4-15.6 1-20.6-4.8-5.8-6.8-2.7-17-3-25-.2-6.3-2.3-12-6.7-16.5-3.9-3.9-9-6.6-14.3-8-2.7-.7-5.5-1.2-8.3-1.3-3.6-.2-19.2 1.6-15-6.9.8-1.7-1.8-3.2-2.7-1.5z"/><path d="m231.6 895.4h54.2c1.9 0 1.9-3 0-3-18.1 0-36.1 0-54.2 0-2 0-2 3 0 3z"/><path d="m260.8 963.2h104.3c1.9 0 1.9-3 0-3-34.8 0-69.5 0-104.3 0-2 0-2 3 0 3z"/><path d="m360.9 944.4h97c1.9 0 1.9-3 0-3-32.3 0-64.7 0-97 0-2 0-2 3 0 3z"/><path d="m898.8 939.2c16.3-4 32.7-4.4 49.3-1.8 7 1.1 14.1 2.2 21.2 1.6 6.9-.6 13.6-2.7 20.3-4.5 7.6-2.1 15.2-3.7 23.2-3.1 8.2.6 16.1 2.9 24.1 4.7 6.9 1.6 13.9 2.7 21 2.6 7.5-.2 14.9-1.5 22.2-2.6 20-3.2 38.8-1.2 58.6 2.1 1.9.3 2.7-2.6.8-2.9-16-2.6-32.1-5.3-48.4-3.7-17 1.7-32.8 5.9-50 2.4-14.4-2.9-28.1-7.4-42.9-4.6-7.9 1.5-15.4 4.3-23.3 5.8-8.8 1.7-17.3.7-26.1-.7-17.1-2.6-34-2.4-50.9 1.8-1.7.5-.9 3.4.9 2.9z"/><path d="m1052.4 908.8c31.4-1.7 62.8-3.4 94.2-5 15.5-.8 30.5-.5 45.9 1.6 6.9.9 13.5 1.1 20.4.3 7.7-.9 15.7-2.1 22.9 1.6 1.7.9 3.2-1.7 1.5-2.6-12.2-6.2-26.3-.4-39.4-1.6-7.8-.7-15.4-2.2-23.2-2.6-8.1-.4-16.2-.2-24.3.2-32.7 1.5-65.4 3.5-98.1 5.2-1.8 0-1.8 3 .1 2.9z"/><path d="m437.5 994.7c14.8 1.4 29.7 2.8 44.5 1.1 6.9-.8 13.5-2.3 20.2-4.3 8.7-2.6 16.5-3.3 25.5-1.7 6.9 1.2 13.7 2.9 20.6 3.5 7.3.6 14.6.2 21.9-.5 15.3-1.5 30.6-4.1 45.8-.7 1.9.4 2.7-2.5.8-2.9-14.6-3.2-29.2-1.1-43.9.4-7.3.7-14.6 1.4-21.9 1-8.3-.4-16.3-2.6-24.4-3.9-6.8-1.1-13.3-1.1-20 .5-7.2 1.8-14 4.2-21.4 5.3-15.8 2.3-31.9.7-47.7-.7-2-.3-1.9 2.7 0 2.9z"/><path d="m595.7 187.8c-3.9-2.7-9.2-7-7.6-12.4 1.7-5.6 5.9-2.9 9.8-4.2 5.2-1.7 4.9-8 3.4-12.1-1.5-4-4.7-13.7 3.6-10.4 1.9.8 3.3 2.1 5.5 1.4 2-.6 3-2.4 3.5-4.3.4-1.7.1-3.5 0-5.3-.2-1.2-.3-2.5-.3-3.7-.4-2.9 1.4-4.1 5.2-3.6.1 1.9 3.1 1.9 3 0-.2-2.8-2.3-4.8-5.3-4.7-3.5.1-5.4 3.5-5.8 6.7-.3 2.2 1.5 7.3.5 9.1-1.2.8-2.4 1.7-3.7 2.5-.5-.3-1-.6-1.5-.9-.9-.3-1.6-.9-2.5-1.1-3.1-.7-5.6 1.2-6.7 4-1.9 4.8 1.5 8.8 2.5 13.3 1.3 6.2-3.4 5.5-7.5 6.2-1.8.3-3.3 1.2-4.5 2.5-6.3 7.3 1 15.4 7 19.6 1.5 1.1 3-1.5 1.4-2.6z"/><path d="m615.4 185c-3.3-3.8-5.8-9 .6-11 1.6-.5 3.4-.3 4.9-1.3 3.3-2.3 1.9-5.4 1.3-8.6-.3-1.8-1-4.2.1-6 .8-1.3 3.7-1.8 5.2-2.1 2.1-.5 4.3-.8 6.1-2 2.7-1.9 3.7-5.3 1.9-8.2-1-1.6-3.6-.1-2.6 1.5 3 4.8-11 6.1-13.4 9.6-2.8 4.1 3.1 11.3-1.8 13.9-1.9 1-4.3.3-6.1 1.6-1.3.9-2.2 2.3-2.6 3.8-1.1 4.3 1.8 8 4.4 11 1.2 1.4 3.3-.7 2-2.2z"/><path d="m497.3 161.3c-2.6-1.8-2.9-5-2.1-7.8.5-1.9 2.9-7.1 5.2-7.3 3.8-.4 5.7 4.4 6.7 7.2.9 2.7 1.2 5.4 1.3 8.2 0 1.9 3 1.9 3 0-.1-5.6-3.8-22.8-13-17.8-3.5 1.9-6.1 7.4-6.5 11.2-.4 3.6 1 6.8 3.9 8.9 1.5 1.1 3-1.5 1.5-2.6z"/><path d="m496.1 162.9c-3.6.9-7.2 1.8-10.9 2.7-2.1.5-5.7.7-7.4 2.3-2.9 2.7-2.1 11-2.1 14.5 0 1 1 1.7 1.9 1.4.5-.1 1-.3 1.6-.4 2.6-1.4 3.9-.5 4 2.5 2 2 2 3.2 0 3.4-1.2.5-2.4.7-3.7.7-.8.1-1.5.6-1.5 1.5.2 6.4.7 12.7 1.4 19.1.2 1.9 3.2 1.9 3 0-.7-6.4-1.2-12.7-1.4-19.1-.5.5-1 1-1.5 1.5 4.2-.5 10.9-2.2 10-7.9-1-6.1-8.4-5.4-12.6-4.2.6.5 1.3 1 1.9 1.4 0-2.3 0-4.5.2-6.8.3-3.6.1-4.9 3.4-6.2 4.5-1.8 9.8-2.4 14.5-3.6 1.9-.3 1.1-3.2-.8-2.8z"/><path d="m510.5 163.8c4.2-.2 8.5-.2 12.7.3 4 .5 3.8 1.1 4.4 4.6.4 2.2.5 4.5.7 6.7.8 8.6 1.4 17.2 1.9 25.8.1 1.9 3.1 1.9 3 0-.6-11.7-1-23.7-2.9-35.3-.5-2.9-1-3.8-4-4.3-5.2-1-10.6-1-15.8-.7-1.9 0-1.9 3 0 2.9z"/><path d="m481.6 212.7c5.9-1 11.8-2 17.6-3 6.7-1.1 13.1-.6 19.8-1.1 3.1-.3 17.8-1.8 12.4-7.9-1.3-1.4-3.4.7-2.1 2.1.8.9-12.8 2.9-13.1 2.9-4.2.1-8.4-.1-12.6.4-7.6.9-15.2 2.5-22.8 3.8-1.9.2-1.1 3.1.8 2.8z"/></g><path d="m1012.8 788.6c-.3 10.5-.6 21-.9 31.6 13.3.9 26.5 1.7 39.8 2.6 0-10.8 0-21.6 0-32.4-13-.6-25.9-1.2-38.9-1.8z" fill="#fff" stroke="#161616" stroke-miterlimit="10" stroke-width="2"/><path d="m1030.1 905.3c1.8 11.6 2.6 21.2 3 28.1 1.3 22.9.3 28.2-1.7 32.4-4.9 10.3-13.8 14.6-13 16 .6.9 5-.1 24.6-10.4-1.2-22.8-2.3-45.5-3.5-68.3-3.1.8-6.2 1.5-9.4 2.2z" fill="#fff" stroke="#161616" stroke-miterlimit="10" stroke-width="2"/><path d="m1004.2 831.8c17 .1 34 .3 51 .4-1.9 22.8-3.7 45.5-5.6 68.3-14.8-1.2-29.7-2.3-44.5-3.5-.4-21.7-.7-43.4-.9-65.2z" fill="#fff" stroke="#161616" stroke-miterlimit="10" stroke-width="2"/><path d="m1011.1 904.5c5.4 13.1 7.2 24.4 7.8 32 .9 11.2 1.5 19.8-3.9 25.5-2 2.2-5.3 4.3-11.7 8.6-5.7 3.8-8.4 5.2-8.2 5.6.3.6 5.8-.6 29.8-9.1 1.6-8.1 2.9-18.5 2.6-30.7-.4-13-2.5-24.1-4.8-32.4-3.8.2-7.7.3-11.6.5z" fill="#fff" stroke="#161616" stroke-miterlimit="10" stroke-width="2"/><path d="m1019.8 982.7c3-2.5 5.8-5.2 8.5-8.1 3.1-3.4 7.7-8.6 12.5-4.1.1-.8.2-1.6.3-2.4-7.1 3.5-14.1 7-21.2 10.4-1.4.7-.7 2.8.8 2.8 6.7.1 10.9-11.6 17.8-9.4 1.8.6 2.6-2.3.8-2.9-3-.9-5.3-.1-7.8 1.7-2.9 2.1-7 7.6-10.7 7.6.3.9.5 1.9.8 2.8 7.1-3.5 14.1-7 21.2-10.4.9-.4 1-1.7.3-2.4-2.7-2.5-7.5-3.4-10.9-1.8-2.5 1.1-4.1 4-5.9 5.9-2.7 2.9-5.5 5.5-8.5 8.1-1.6 1.3.5 3.5 2 2.2z" fill="#161616"/><path d="m1032.1 967.1c3 .1 5.9.7 8.7 1.9 1.7.8 3.3-1.8 1.5-2.6-3.3-1.5-6.6-2.3-10.2-2.4-1.9.1-1.9 3.1 0 3.1z" fill="#161616"/><path d="m1015.7 963.6c2.3.6 4.3 1.8 5.9 3.6 1.3 1.4 3.4-.7 2.1-2.1-2-2.1-4.5-3.6-7.3-4.3-1.7-.6-2.5 2.3-.7 2.8z" fill="#161616"/><path d="m999.5 975.7c3.1-2.3 6.3-4.4 9.6-6.4 1.5-.9 3.1-2.1 4.7-2.6 2.5-.9 4-.3 6.3.7 0-.9 0-1.7 0-2.6-3.2 1.4-6.8 1.3-10.1 2.7-3.2 1.3-6.2 4.5-9.5 5.1.4.9.8 1.8 1.2 2.7 5.9-2.9 12.5-3.4 18.4-6.3 1.7-.9.2-3.4-1.5-2.6-5.9 2.9-12.5 3.4-18.4 6.3-1.6.8-.4 3 1.2 2.7 3.6-.6 6.5-3.9 9.9-5.2s7.1-1.4 10.4-2.8c1-.4 1-2.2 0-2.6-3.8-1.7-5.5-2.7-9.3-.7-5 2.6-9.7 5.7-14.2 9-1.8 1.1-.3 3.7 1.3 2.6z" fill="#161616"/><path d="m1016.6 919.8c2.5-.9 5-.8 7.3.4 1.7.9 3.2-1.7 1.5-2.6-3-1.6-6.4-1.9-9.6-.7-1.8.7-1 3.6.8 2.9z" fill="#161616"/><path d="m1019.1 929.8c2.1-.2 4.1.3 5.7 1.7 1.5 1.2 3.6-.9 2.1-2.1-2.2-1.8-4.9-2.8-7.8-2.6-1.9.1-1.9 3.1 0 3z" fill="#161616"/><path d="m1020.2 942.3c1.9-.2 3.7.5 4.8 2.1 1 1.6 3.6.1 2.6-1.5-1.5-2.5-4.4-4-7.3-3.6-.8.1-1.5.6-1.5 1.5-.1.7.6 1.6 1.4 1.5z" fill="#161616"/><path d="m1033.1 919.1c1.8-1 4.1-.9 5.8.5 1.5 1.2 3.6-.9 2.1-2.1-2.7-2.2-6.3-2.7-9.4-1-1.7 1-.2 3.6 1.5 2.6z" fill="#161616"/><path d="m1034.8 938c1.6-.7 3.4-.4 4.7.8 1.4 1.3 3.6-.8 2.1-2.1-2.3-2.1-5.5-2.6-8.4-1.2-1.7.7-.1 3.3 1.6 2.5z" fill="#161616"/><path d="m1035.2 954c1.6-1 3.6-1 5.1.2s3.6-.9 2.1-2.1c-2.5-2.1-6-2.4-8.7-.6-1.6 1-.1 3.6 1.5 2.5z" fill="#161616"/><path d="m1057.6 832.1c-2 23-4 46-6 69" fill="none" stroke="#161616" stroke-miterlimit="10" stroke-width="6"/><path d="m1004.8 897.9c16.7 1.2 33.4 2.3 50.1 3.5" fill="none" stroke="#161616" stroke-miterlimit="10" stroke-width="6"/><path d="m1055 789.5c-.4 11.4-.9 22.7-1.3 34.1" fill="none" stroke="#161616" stroke-miterlimit="10" stroke-width="6"/><path d="m1057.1 845.6c9.3-1.7 19.2 5.6 19.9 15.2 1 12-12.7 14.1-21.7 12.8-1.9-.3-2.7 2.6-.8 2.9 11 1.6 26.5-1.5 25.5-15.7-.8-11.7-12.5-20.2-23.7-18.1-1.9.3-1.1 3.2.8 2.9z" fill="#161616"/><path d="m1054.9 878.9c3.9.8 7 3.6 8.1 7.4.5 1.9 3.4 1.1 2.9-.8-1.3-4.8-5.2-8.6-10.1-9.5-2-.3-2.8 2.5-.9 2.9z" fill="#161616"/><path d="m1053.4 877.9c2.4 3.5 3.5 7.4 3.1 11.7-.1 1.9 2.9 1.9 3 0 .3-4.7-.9-9.3-3.6-13.2-1-1.6-3.6-.1-2.5 1.5z" fill="#161616"/><path d="m1004.1 844.2c-6.6-4.2-18.7 7.9-20.2 13.8-3 12 12.4 10.6 18.8 14.6 1.6 1 3.1-1.6 1.5-2.6-4.6-2.9-11.4-1.8-15.4-5.4-4.9-4.4-.4-9.7 3-12.8 1.8-1.6 7.9-6.9 10.8-5.1 1.6 1.2 3.2-1.4 1.5-2.5z" fill="#161616"/><path d="m1002.5 871.2c-2.6 1-5 2.5-7 4.6-1.5 1.6-3.4 4.1-1.9 6.3 1.1 1.6 3.7.1 2.6-1.5-.7-1 1.9-3.2 2.6-3.8 1.3-1.2 2.8-2.1 4.5-2.7 1.8-.7 1.1-3.6-.8-2.9z" fill="#161616"/><path d="m1001.3 873.3c-1.9 3-2.5 6.4-1.8 9.8.4 1.9 3.3 1.1 2.9-.8-.6-2.7 0-5.2 1.5-7.5 1.1-1.6-1.5-3.1-2.6-1.5z" fill="#161616"/><path d="m1010.8 842.3c-.5 7.3-.4 14.7.1 22 .2 1.9 3.2 1.9 3 0-.6-7.3-.6-14.7-.1-22 .2-1.9-2.8-1.9-3 0z" fill="#161616"/><path d="m1013 843.1c10.6.6 21.1 1 31.7 1.2-.5-.5-1-1-1.5-1.5-.3 7.5-.6 15.1-1 22.6-.1 1.9 2.9 1.9 3 0 .3-7.5.6-15.1 1-22.6 0-.8-.7-1.5-1.5-1.5-10.6-.2-21.1-.6-31.7-1.2-1.9-.1-1.9 2.9 0 3z" fill="#161616"/><path d="m1011.8 865.6c4.4 1.2 9.3.9 13.7 1.2 5.4.3 10.9.7 16.3 1 1.9.1 1.9-2.9 0-3-4.8-.3-9.6-.6-14.4-.9s-10.2 0-14.9-1.2c-1.7-.5-2.5 2.4-.7 2.9z" fill="#161616"/><path d="m1015.2 881.1c1.8 3.9 5.7.5 8.7 1.9 1.4.6 1.1 1.5 3 1.6 2.2.1 7.6-4.3 8.7-.2.3 1.1 1.7 1.4 2.5.7 1-.3 2.1-.6 3.1-.8 1.2 1.5 3.4-.7 2.1-2.1-2.3-2.7-5.2-1.2-7.4.8.8.2 1.7.4 2.5.7-.9-3.5-4.6-5.8-8.1-4.2-1.7.8-1.9 2.3-4.5 1.3-.5-.2-.7-1-1.2-1.2-1.1-.4-6.9.2-6.9.1-.7-1.9-3.3-.4-2.5 1.4z" fill="#161616"/><path d="m1020.5 802.4c.2-1.1 1.5-1.4 2.4-1 1.3.5 2 2 2.6 3.1.8 1.7 3.4.2 2.6-1.5-1.1-2.2-2.8-4.5-5.5-4.8-2.2-.2-4.5 1.1-4.9 3.3-.5 2 2.4 2.8 2.8.9z" fill="#161616"/><path d="m1038.9 803.8c.2-1 1.1-1.6 2.1-1.2 1.2.4 1.7 1.9 1.9 3 .3 1.9 3.2 1.1 2.9-.8-.4-2.4-2-4.9-4.6-5.3-2.3-.3-4.8 1.1-5.2 3.5-.3 1.9 2.6 2.7 2.9.8z" fill="#161616"/><path d="m1022 808.7c3.4 6 11.5 6.9 15.9 1.5 1.2-1.5-.9-3.6-2.1-2.1-3.2 3.9-8.7 3.6-11.2-.9-.9-1.7-3.5-.2-2.6 1.5z" fill="#161616"/><path d="m917.1 265.3c-12.6-5.1-20.2-17.3-24.8-29.5-4.9-12.7-7-26.5-6.3-40.1 1.2-25.1 11.9-50.5 31.7-66.5 18.7-15.2 46.4-19.5 67.2-5.7 21.7 14.4 25.6 44.1 25.8 68 .2 26.6-6 54.5-25.7 73.6-1.4 1.3.7 3.5 2.1 2.1 18.7-18.2 25.8-44.2 26.5-69.6.7-24.9-2.3-56.4-22.8-73.5-19.2-16-47.7-15.2-68.2-2.2-22.7 14.4-36.1 40.5-39 66.8-1.8 16.3.2 33.2 6.2 48.6 5.1 13 13.2 25.4 26.6 30.8 1.7.8 2.4-2.1.7-2.8z" fill="#161616"/><path d="m915.7 267.2c-3.4 4.8-2.7 11.9 2.3 15.5 3.8 2.7 9.4 3.1 13.9 3.7 5.4.8 10.9 1.1 16.4 1.1 9.8-.1 21-.8 30.1-4.6 6.6-2.8 11.6-9.4 8.1-16.5-.8-1.7-3.4-.2-2.6 1.5 7.5 15.3-28 16.6-35.7 16.6-7.1 0-14.2-.6-21.1-1.9-3.3-.6-7-1.2-9.1-4.1-2.1-3-1.7-6.9.3-9.7 1.1-1.7-1.5-3.2-2.6-1.6z" fill="#161616"/><path d="m918.9 283.4c0 5 .1 10.1.7 15.1.3 2.3.8 4.3 2.7 5.7 2.7 2 7.2 1.9 10.4 2.2 5.4.4 10.9.4 16.3.2 5.1-.2 10.2-.6 15.3-1.1 3-.3 6.4-.2 8.7-2.5 5.1-5 5.2-14.5 3.9-20.8-.4-1.9-3.3-1.1-2.9.8.7 3.4.9 6.8.2 10.3-1 4.9-2.4 8.1-7.9 9.1-6.4 1.2-13.6 1.2-20.1 1.3-6.4.1-13.6.4-19.9-1.1-5.8-1.4-4.3-14.4-4.3-19.2-.1-1.9-3.1-1.9-3.1 0z" fill="#161616"/><path d="m919.9 175.7c12 7.5 21.1 18.5 26.2 31.7.7 1.8 3.6 1 2.9-.8-5.4-14-14.9-25.6-27.5-33.5-1.7-1.1-3.2 1.5-1.6 2.6z" fill="#161616"/><path d="m948.5 207.4c5.9-12.4 14.5-23 25.5-31.2 1.5-1.1 0-3.8-1.5-2.6-11.4 8.5-20.4 19.5-26.6 32.3-.8 1.7 1.8 3.2 2.6 1.5z" fill="#161616"/><path d="m946.1 203.9c1.5 20.6 2.2 41.2 1.9 61.8 0 1.9 3 1.9 3 0 .3-20.6-.4-41.3-1.9-61.8-.2-2-3.2-2-3 0z" fill="#161616"/><path d="m829 254.3c13.3-4.5 26.5-9 39.8-13.5 1.8-.6 1-3.5-.8-2.9-13.3 4.5-26.5 9-39.8 13.5-1.9.6-1.1 3.5.8 2.9z" fill="#161616"/><path d="m844.2 234.3c4.6-1.3 9.2-2.7 13.8-4 1.8-.5 1.1-3.4-.8-2.9-4.6 1.3-9.2 2.7-13.8 4-1.8.6-1.1 3.5.8 2.9z" fill="#161616"/><path d="m810.9 201c17.6-.2 35.1.3 52.6 1.4 1.9.1 1.9-2.9 0-3-17.5-1.1-35.1-1.5-52.6-1.4-1.9 0-1.9 3 0 3z" fill="#161616"/><path d="m848.1 187.4c4.2 1.1 8.5 1.6 12.8 1.7 1.9 0 1.9-3 0-3-4.1-.1-8.1-.6-12-1.6-1.9-.5-2.7 2.4-.8 2.9z" fill="#161616"/><path d="m841.6 94.3c15.7 13.5 30 28.3 42.9 44.5 1.2 1.5 3.3-.6 2.1-2.1-12.9-16.2-27.2-31.1-42.9-44.5-1.4-1.3-3.6.8-2.1 2.1z" fill="#161616"/><path d="m885.5 122.7c2.7 2.8 5.3 5.6 8 8.5 1.3 1.4 3.4-.7 2.1-2.1-2.7-2.8-5.3-5.6-8-8.5-1.3-1.4-3.4.7-2.1 2.1z" fill="#161616"/><path d="m824.6 128.3c4.9 2.9 9.9 5.6 15 8.1 1.7.9 3.2-1.7 1.5-2.6-5.1-2.6-10.1-5.3-15-8.1-1.7-1-3.2 1.6-1.5 2.6z" fill="#161616"/><path d="m998.6 105.5c14.8-14.8 29.6-29.6 44.4-44.4 1.4-1.4-.8-3.5-2.1-2.1-14.8 14.8-29.6 29.6-44.4 44.4-1.4 1.4.7 3.5 2.1 2.1z" fill="#161616"/><path d="m1013.5 112.4c3.8-2.8 7.6-5.5 11.4-8.3 1.5-1.1.1-3.7-1.5-2.6-3.8 2.8-7.6 5.5-11.4 8.3-1.6 1.1-.1 3.7 1.5 2.6z" fill="#161616"/><path d="m952.4 85.9c3-14.5 5.3-29.1 6.7-43.8.2-1.9-2.8-1.9-3 0-1.4 14.4-3.6 28.8-6.6 43-.4 1.9 2.5 2.7 2.9.8z" fill="#161616"/><path d="m1036.5 177.9c27.2-2.5 54.3-5 81.5-7.5 1.9-.2 1.9-3.2 0-3-27.2 2.5-54.3 5-81.5 7.5-1.9.1-2 3.1 0 3z" fill="#161616"/><path d="m922.2 270.8c16.9 3.7 34.1 3.6 50.9-.2 1.9-.4 1.1-3.3-.8-2.9-16.3 3.7-33 3.8-49.3.2-1.9-.4-2.7 2.5-.8 2.9z" fill="#161616"/><path d="m924.7 296.2c12.9 1.7 25.8 2.1 38.8 1.2 1.9-.1 1.9-3.1 0-3-13 .9-25.9.5-38.8-1.2-1.9-.2-1.9 2.8 0 3z" fill="#161616"/><path d="m1017.6 260.7c20.3 14.3 41 28.1 62 41.4 1.6 1 3.1-1.6 1.5-2.6-21-13.3-41.7-27.1-62-41.4-1.6-1.1-3.1 1.5-1.5 2.6z" fill="#161616"/><path d="m762.1 964.1c-19 23.3-37.9 46.5-56.9 69.8 22.3 78.4 34.9 99 42.4 97.9 5.4-.8 8-12.5 10.9-25.6 7.2-32.7 2.9-60.8-1.5-78.3 12-13.4 23.9-26.9 35.9-40.3-10.3-7.8-20.5-15.6-30.8-23.5z" fill="#161616" stroke="#161616" stroke-miterlimit="10" stroke-width="2"/><path d="m692 844.1c11.9 9.2 23.3 5.9 46.9 9.9 20.1 3.4 42.7 10.9 66.7 25.9-25.6 30-51.2 61.7-76.6 95.1-6.1 8.1-12.2 16.2-18.1 24.3 9.8 2.3 21.6 5.9 34.4 11.7 12.5 5.6 22.7 11.9 30.8 17.6 38.1-33.2 72.1-65.3 102.4-95.6 14-14 33.8-35.4 36.9-65.7.2-1.7.2-3.2.2-4.7-.7-50.3-64-86.7-102.5-100.1-42.1-14.6-114.5-22.5-134.7 12.4-11.9 20.6-4.9 54.9 13.6 69.2z" fill="#ec615b"/><path d="m765.9 793.8c-.7 9.5-2.4 20.8-5.9 33.3-2.5 8.9-5.5 16.8-8.5 23.5-3.3 1.3-6.5 2.6-9.8 3.9 21.5 8.5 43.1 17 64.6 25.5-16 18.3-32.1 37.5-48.3 57.5-16.7 20.6-32.6 40.8-47.7 60.7 10.7 3.5 21.3 7 32 10.4 38.3-42.2 76.6-84.5 114.9-126.7 4-11.5 3.8-20.5 2.6-26.8-5.5-30.8-43.2-55.9-93.9-61.3z" fill="#6d6c6c" opacity=".26"/><path d="m806.1 879.8c3.5 5.3 6.9 10.7 10.4 16-29.8 35.9-59.6 71.7-89.4 107.6-5.3-1.4-10.7-2.9-16-4.3 19.1-26.2 39.7-53.1 62-80.2 11.1-13.5 22.1-26.5 33-39.1z" fill="#6d6c6c" opacity=".23"/><path d="m706.6 926.1c29.5 5.4 59.1 10.7 88.6 16.1 34.1 74.4 37.9 98.4 31.5 102.5-4.6 2.9-14.2-4.3-24.9-12.4-26.8-20.3-41.7-44.5-49.8-60.8-17.8-2.4-35.6-4.9-53.4-7.3 2.6-12.7 5.3-25.4 8-38.1z" fill="#161616" stroke="#161616" stroke-miterlimit="10" stroke-width="2"/><path d="m645.8 760.4c-53.8 15.8-86.6 48.6-107.7 70.2-28.5 29.3-63.5 65.2-53.4 91.7 5.2 13.5 21 21.8 94.6 34.6 55.6 9.7 103.8 14.9 141.4 17.8 4.7-17.2 9.4-34.3 14-51.5-37.8-12.2-75.5-24.3-113.3-36.5 23.2-4.9 47.6-10.7 73-17.8 19.3-5.4 37.7-11 55.2-16.9 16.2-32.7 19.7-68 2.8-88-23.6-28-76.5-12.5-106.6-3.6z" fill="#ec615b"/><path d="m765.5 795c-.5 9.9-2.2 22.6-6.8 36.6-2.8 8.5-6 15.9-9.2 22-2.7.2-5.4.5-8.1.7-22.8 7.5-47.1 14.6-72.8 21.2-16.6 4.3-32.8 8-48.5 11.4 37.9 11.9 75.8 23.7 113.7 35.6-.8 4.1-1.8 8.4-3 12.9-1.4 5.2-3 10-4.5 14.4-52.3-12.9-104.6-25.8-156.9-38.7-2.4-2.9-10.3-13.4-9.1-27.3 1.3-15.1 15.7-25.8 34.1-35.6 53.2-28.2 142.4-47.3 171.1-53.2z" fill="#6d6c6c" opacity=".29"/><path d="m593.2 889c9.5-.7 19.1-1.4 28.6-2.2 37.3 12.4 74.6 24.9 111.9 37.3-1.6 5.9-3.2 11.9-4.8 17.8-45.2-17.7-90.5-35.3-135.7-52.9z" fill="#6d6c6c" opacity=".24"/><path d="m631.7 533.8c14.8-8.7 40.5-21.1 74.7-24.7 52.4-5.5 92.6 13.3 108.5 21.8-2.9 39.3-7.4 70.7-11 92.3-4.3 25.8-7.8 40.1-9.4 63.8-2 29.7.5 54.1 2.8 70.1-17.4 5.4-43.7 11.3-76.1 10.6-31.2-.7-56.4-7.5-73.3-13.4 4.5-35.8 3-64.2.8-83.5-2.5-21.5-5.9-32-10-58-5.3-33.6-6.7-61.1-7-79z" fill="#fff" stroke="#161616" stroke-miterlimit="10" stroke-width="2"/><path d="m739.9 521c2.1 7.6 4.5 18.1 6.1 30.7 1.1 8.5 5.6 47-8.4 97.8-8.6 31.3-17.7 64.4-47.5 91.6-9.6 8.8-18.9 14.7-25.7 18.4 15.1 3.9 34.8 7.6 58.1 7.8 30.5.3 55.7-5.2 73.2-10.6-1-7.5-2.3-18.8-2.8-32.4-.4-11.9-.4-30.9 7.8-84.4 6.5-42.1 11.1-60.2 13.4-98.3.3-4.4.4-8.1.6-10.6-7.3-4.3-16.8-9-28.5-12.8-10.8-3.5-20.5-5.3-28.5-6.1-5.8 2.9-11.8 5.9-17.8 8.9z" fill="#6d6c6c" opacity=".14"/><path d="m811.8 547.3c-5.6 31.7-13 57.3-18.8 75.1-17 52-28.9 87-61 112.6-19.9 15.9-40.6 22.6-53.9 25.8 13.5 3.8 32.6 7.5 55.7 7 26.6-.6 48.1-6.6 62.2-11.7-1.9-12.2-4.1-30.5-3.5-52.8.7-28.9 5.4-46.3 10.6-78 2.9-18.6 6.6-45.2 8.7-78z" fill="#6d6c6c" opacity=".17"/><path d="m631.1 533.3c-13 9-29.7 23.2-44.3 44.3-32.9 47.8-32 98.5-30.7 117.2 6 16.1 16.3 37.2 34.3 57.9 10.5 12.1 25.9 29.5 52.2 40.7 8.8 3.8 16.5 5.9 22.1 7.1 4.8-4.3 9.5-8.6 14.3-12.9-15.4-18-30.9-36.9-46.4-56.4-11.9-14.9-23.3-29.7-34.3-44.3.4-12.3 3-34.6 16.4-57.9 7.6-13.2 16.5-22.8 23.6-29.3-2.4-22.1-4.8-44.2-7.2-66.4z" fill="#fff" stroke="#161616" stroke-miterlimit="10" stroke-width="2"/><path d="m633 555.6c-28.8 32.5-42.5 63.3-49.3 82.7-11.9 33.6-9.4 51.2-7.6 59.6 1.5 6.6 4.8 17.9 16.9 35.1 10.5 14.9 32.6 41.6 74.7 63.6 3.7-3.6 7.4-7.1 11.1-10.7-11.9-13.4-23.9-27.5-36-42.2-15.9-19.3-30.7-38.3-44.4-56.9.4-10.1 2.1-24.2 8-40 8.9-23.7 22.9-39.3 31.6-47.6-1.8-14.5-3.4-29-5-43.6z" fill="#6d6c6c" opacity=".13"/><path d="m598.3 688.1c1.8 11.7 5.5 26.6 13.3 42.7 17.2 35 44.1 54.3 57.8 62.7 2.7-2.4 5.3-4.7 8-7.1-26.4-32.8-52.7-65.6-79.1-98.3z" fill="#6d6c6c" opacity=".16"/><path d="m816.4 531.5c14.6 8.9 33.4 22.8 49.7 43.5 37 46.9 35.9 96.7 34.5 115.1-6.8 15.8-18.3 36.5-38.5 56.9-11.8 11.8-29.1 28.9-58.6 40-9.9 3.7-18.6 5.8-24.9 7-5.3-4.2-10.7-8.4-16-12.6 17.2-17.7 34.7-36.2 52.1-55.4 13.3-14.7 26.1-29.2 38.5-43.5-.5-12-3.3-33.9-18.4-56.9-8.6-13-18.5-22.4-26.5-28.8 2.8-21.8 5.5-43.5 8.1-65.3z" fill="#fff" stroke="#161616" stroke-miterlimit="10" stroke-width="2"/><path d="m815.7 555.8c12.7 13.3 30 34.6 43.5 64.3 6.4 14.1 16.8 37 17 58.6.7 65.7-92.3 110.9-97.7 113.5-5.3-3.4-10.5-6.7-15.8-10.1 30.1-33 60.1-66 90.2-99-.6-10.8-3.1-30.9-15.1-52.3-9.9-17.6-22.2-29-30.3-35.3 2.8-13.2 5.5-26.4 8.2-39.7z" fill="#6d6c6c" opacity=".16"/><path d="m853.9 683.4c-1.5 8.7-4 18.2-7.9 28-17.6 44.4-53.2 68.7-71.2 79.1-4.3-2.8-8.5-5.6-12.8-8.4 30.6-32.9 61.2-65.8 91.9-98.7z" fill="#6d6c6c" opacity=".12"/><path d="m593.5 690.8h245.9v155.7h-245.9z" fill="#fff" stroke="#161616" stroke-miterlimit="10" stroke-width="2"/><path d="m712.9 783.5c-13 1.6-19.3-14.2-15.9-24.7 3.3-10.4 15.6-15.3 25.6-11.7 9.9 3.6 14.7 15.7 11.2 25.4-3.9 10.8-17.5 15.2-27.5 10.4-1.7-.8-3.3 1.8-1.5 2.6 8.9 4.3 19.8 2.7 26.9-4.3 6.9-6.9 7.9-17.8 3.6-26.3-9.8-19.4-40.1-13.2-42.2 8.1-1.1 11.4 7.1 25.1 19.8 23.6 1.9-.3 1.9-3.3 0-3.1z" fill="#161616"/><path d="m685.8 690.4c33.3 11.6 56 41.3 56.7 73.2.9 40-32.7 77.6-78.5 81.4 58.3.5 116.6 1 175 1.5-.2-52.2-.3-104.4-.5-156.5-50.9 0-101.8.2-152.7.4z" fill="#6d6c6c" opacity=".14"/><path d="m839 689.9c-.9 31.8-7.2 56.6-12.5 72.9-7.8 23.7-13.4 41-29.5 56.3-21.9 21-49.2 24.9-61.2 25.9 34.1.3 68.2.6 102.3 1 .1-29.7.3-59.4.5-89.2 0-22.3.2-44.6.4-66.9z" fill="#6d6c6c" opacity=".26"/><path d="m709.2 453.1c-5.5 6.7-.2 14.9-1.2 36.8-.5 10.9-2.3 19.7-3.7 25.6 4.7 2.2 13 5.3 23.7 5.6 13.2.3 23.2-3.8 28.1-6.2-2.2-4.4-5.1-11.2-6.9-20-4.5-22.4 3.5-32.9-3.1-41.2-7.7-9.6-29.5-9.7-36.9-.6z" fill="#fff" stroke="#161616" stroke-miterlimit="10" stroke-width="2"/><path d="m674.3 356.9c-6.3 16.2-3.9 30.8-2.5 37.1-.6.1-12.3 2.6-15.5 11.6-3.2 9.1 3.4 22 17.2 26.2 5 12.2 17.1 35.8 42.6 48.7 4.3 2.1 8.4 3.8 12.5 5 3.7-1.4 8.7-3.6 14.4-6.9 17.8-10.3 27.7-23.1 30-26.2 4.2-5.6 9.9-14.6 13.9-27 2.2.4 6.1.6 9.9-1.3 8.6-4.4 12.9-18.1 6.9-27-5-7.4-14.7-7.7-15.9-7.7 1.3-5.2 5.3-23.9-4.8-42.4-11.6-21.3-36.5-32.5-59.9-29.3-34.6 4.5-48.2 37.6-48.8 39.2z" fill="#fff" stroke="#161616" stroke-miterlimit="10" stroke-width="2"/><path d="m707.9 479.6c6.1 3.6 12.8 9.2 20.3 8.6 6.2-.5 13.1-4.1 17.8-7.9 1.5-1.2-.6-3.3-2.1-2.1-4.4 3.5-11.5 7.2-17.3 7.1-6.1-.1-12.3-5.2-17.3-8.3-1.5-1-3 1.6-1.4 2.6z" fill="#161616"/><path d="m707.5 480.9c5.7 4.9 12.2 10.4 20.2 10 7.8-.4 15.1-5.6 20.2-11.2 1.3-1.4-.8-3.5-2.1-2.1-4.4 4.8-10.6 9.5-17.4 10.2-7.5.7-13.5-4.4-18.8-9-1.4-1.3-3.5.8-2.1 2.1z" fill="#161616"/><path d="m711.3 481.5c0-.1 0-.1 0 0-.6-.9-1.7-1.1-2.4-.4 0 0 0 0-.1.1-.6.5-.6 1.6 0 2.1 11 10.5 31.2 13.9 39.1-2.2.8-1.7-1.7-3.3-2.6-1.5-7 14.4-24.7 10.9-34.3 1.6v2.1s0 0 .1-.1c-.8-.1-1.6-.2-2.4-.3v.1c1 1.6 3.6.1 2.6-1.5z" fill="#161616"/><path d="m723.3 389c-1.3 16.2-.6 32.3 2 48.3.1.8 1.1 1.3 1.8 1 3.9-1.3 6.7-3.6 8.8-7.1 1-1.7-1.6-3.2-2.6-1.5-1.7 2.9-3.8 4.6-7 5.7.6.3 1.2.7 1.8 1-2.6-15.7-3.2-31.6-1.9-47.5.3-1.9-2.7-1.9-2.9.1z" fill="#161616"/><path d="m705.5 404.9c.2.9 1.7 6.5 0 7.4s-6.5-2.7-8-7.4c-1.2-4-.2-9 1.7-9.4 2-.5 5.1 5 6.3 9.4z" fill="#161616" stroke="#161616" stroke-miterlimit="10"/><path d="m757.1 404.9c.2.9 1.7 6.5 0 7.4s-6.5-2.7-8-7.4c-1.2-4-.2-9 1.7-9.4 2-.5 5.1 5 6.3 9.4z" fill="#161616" stroke="#161616" stroke-miterlimit="10"/><path d="m719.7 450.5c12.2 5.2 23.3-2.1 32.3-10 1.5-1.3-.7-3.4-2.1-2.1-7.8 6.8-17.8 14.1-28.6 9.5-1.9-.7-3.4 1.9-1.6 2.6z" fill="#161616"/><path d="m754.9 420.8c1.9 0 1.9-3 0-3s-1.9 3 0 3z" fill="#161616"/><path d="m766 415.2c.1-.1.2-.2.3-.3.6-.6.6-1.5 0-2.1s-1.5-.6-2.1 0c-.1.1-.2.2-.3.3-.6.6-.6 1.5 0 2.1s1.5.6 2.1 0z" fill="#161616"/><path d="m762.7 422.5h.3c.8 0 1.5-.7 1.5-1.5s-.7-1.5-1.5-1.5c-.1 0-.2 0-.3 0-.8 0-1.5.7-1.5 1.5s.6 1.5 1.5 1.5z" fill="#161616"/><path d="m693.7 387c3.8-3.2 9.4-3.3 13.2-.2 1.5 1.2 3.6-.9 2.1-2.1-5.2-4.2-12.4-4.2-17.5.2-1.4 1.2.8 3.3 2.2 2.1z" fill="#161616"/><path d="m742.5 385.9c4.3-3.8 10.4-4.5 15.5-1.8 1.7.9 3.2-1.7 1.5-2.6-6.3-3.4-13.8-2.5-19.1 2.3-1.5 1.3.6 3.4 2.1 2.1z" fill="#161616"/><path d="m694.5 420.5c1.9 0 1.9-3 0-3s-1.9 3 0 3z" fill="#161616"/><path d="m705.1 419.1c1.9 0 1.9-3 0-3s-1.9 3 0 3z" fill="#161616"/><path d="m699.8 421.4c-.1.1-.2.2-.3.3-.6.6-.6 1.5 0 2.1s1.5.6 2.1 0c.1-.1.2-.2.3-.3.6-.6.6-1.5 0-2.1s-1.5-.6-2.1 0z" fill="#161616"/><path d="m690.6 324.4c-6 3.7-19.1 11.8-28 28.4-8.9 16.5-8.8 32.1-8.4 38.8-14.6 26.3-21.2 49.5-24.4 65.3-5.2 25.1-2.4 34.3 1.2 40.4 8.8 15 26.5 18.7 30.8 19.6 22.1 4.7 39.7-6.6 43.7-9.2 1.1-3.3 2.2-7.4 2.8-12 1.1-7.9.5-14.7-.4-19.6-5-4.1-10.8-9.6-16.4-16.8-8.5-11-13.3-21.8-16-29.6-8.8-.9-15.4-6.9-16-13.6-.6-6.3 3.8-14.4 9.6-14.4 4.3 0 7.4 4.4 8 5.2 3.3-1.9 7.9-5.2 12-10.4 5.9-7.5 6.9-14.2 9.6-21.2 2.6-6.8 7.6-16.2 18.4-26 10.4 3.7 18.7 7.3 24.4 10 18.3 8.5 28.7 13.5 36.8 24.4 4.5 6 6.8 11.9 8 15.6 9.3-7.1 13.1-5.2 13.9-4.8 5.9 3.3 5.7 21.4-3.5 26.4-3.5 1.9-7.5 1.4-10 .8-2.9 10.1-9.3 26.6-24 41.2-4.9 4.9-9.9 8.7-14.4 11.6-.4 3.7-.6 8.8.4 14.8.9 5.5 2.5 10 4 13.2 24.3 16 54.5 13.1 70.9-4.1 14.6-15.4 14.6-38.7 9.1-54.6-5-14.5-14.7-23.2-19.5-27 1.3-5.6 8.5-38.8-12.4-69.3-5.4-7.9-20.5-27-47.7-33.6-28.8-7-52.5 4.4-62.5 10.5z" fill="#5222d0"/><path d="m754 365.5c11.3 14.2 14.3 27.3 15.3 34.1 4.1 28.6-12.5 51.8-20.9 63.7-6.9 9.7-14 16.6-19.1 21.1 4.4 11.8 8.7 23.5 13.1 35.3l13.5-4.5c-2.1-3.7-4.3-8.3-6-13.9-3.1-10-3.3-18.8-3-24.8 5.5-3.9 11.9-9.2 18.1-16.2 12.4-14 18.6-28.4 21.8-38.1 2 .4 6.3.9 10.4-1.4 8.6-4.9 7.2-17.1 7.1-17.9-.3-2.6-.9-6.8-3.9-8.5-3.5-1.9-9.3-.1-13.9 5.3-1.4-4.9-5.4-16.2-16.2-25.2-6-5-12.1-7.6-16.3-9z" fill="#6d6c6c" opacity=".17"/><path d="m724.7 389.9c-.6-.1-2.6 8.6-8.7 47h10.5c-.7-5.1-1.5-12.5-1.9-21.5-.5-15.4.7-25.4.1-25.5z" fill="#6d6c6c" opacity=".19"/><path d="m812.6 417.8c-1.7 1 4.7 9.6 3.8 22.4-.3 4-.9 13.1-8.1 19.2-.5.4-11.2 9.2-21.8 3.6-6.3-3.3-10.1-10.3-9.9-17.9-3 5.6-7.9 13-15.6 20.2-4.8 4.5-9.5 7.8-13.6 10.3-.3 4.4-.3 10.4 1.3 17.2.9 3.7 2 6.9 3.1 9.5 3.1 2 7.7 4.7 13.7 6.8 3.8 1.3 24.7 8.6 45.1-1.5 3.6-1.8 11.6-5.9 17.4-14.7.7-1.1 3.3-5 5.2-11.6 6.8-22.6-3.2-43-4.1-44.7-5.5-11.1-14.4-20-16.5-18.8z" fill="#341999" opacity=".54"/><path d="m675.4 430.1c-.9.1 1.1 8.3-1.1 16.4-1.6 6-6.7 15.8-15.4 17.8-9.1 2-20.4-4.7-25.6-17.2-2.4 5.5-5.6 14.3-6.1 25.5-.3 7.3-.7 15.1 2.9 22.8 8.1 17.2 31.9 23.9 49.6 22.3 11.8-1.1 20.7-5.7 25.5-8.8 1.2-3.4 2.4-7.5 3.2-12.2 1.3-8.1 1-15.2.3-20.4-7.9-5.7-13.3-11.6-16.7-15.9-4.8-6.1-11.3-14.3-14.6-25.7-.5-1.3-1.4-4.7-2-4.6z" fill="#341999" opacity=".35"/></svg>